<svg width="750.00001" height="750.00001" xmlns="http://www.w3.org/2000/svg">
 <metadata id="metadata4614">image/svg+xml</metadata>
 <g>
  <title>basket</title>
  <g stroke="null" id="layer1">
   <g stroke="null" id="g4633">
    <path stroke="null" d="m696.986745,374.993212c0,177.829674 -144.153683,321.976553 -321.958404,321.976553c-177.856866,0 -322.015092,-144.146879 -322.015092,-321.976553c0,-177.822871 144.158225,-321.962963 322.015092,-321.962963c177.804721,0 321.958404,144.140092 321.958404,321.962963" id="path100" fill-rule="nonzero" fill="#3aa8a0"/>
    <path stroke="null" d="m389.244944,202.329289l-146.753583,110.06291l83.35468,-116.377864l-270.844922,143.24022c-1.296535,11.736844 -1.98787,23.657283 -1.98787,35.738656c0,151.028516 103.983686,277.733357 244.274955,312.508676l261.415578,-144.505036l22.909249,-189.099577l-45.616792,-22.288209l-146.751296,-129.279777" id="path132" fill-rule="nonzero" fill="#308e84"/>
    <path stroke="null" d="m511.733768,522.803047l0,-35.20825l38.531151,0.099731l-5.705184,35.108519l-32.825967,0zm-320.378581,-36.017455l44.914154,0.113332l0,35.904122l-40.274271,0l-4.639883,-36.017455zm44.914154,-68.081829l0,57.222192l-46.330825,-0.117864l-7.359892,-57.104327l53.690717,0zm66.132492,0l0,57.394462l-55.15499,-0.138269l0,-57.256192l55.15499,0zm67.095849,0l0,57.555396l-56.120597,-0.140535l0,-57.414861l56.120597,0zm64.169506,0l0,57.720863l-53.198828,-0.138269l0,-57.582594l53.198828,0zm10.970731,68.718764l56.11831,0.154137l0,35.226383l-56.11831,0l0,-35.38052zm-64.169559,-0.158663l53.198828,0.14053l0,35.398653l-53.198828,0l0,-35.539183zm-78.066527,35.539183l-55.15499,0l0,-35.872388l55.15499,0.140535l0,35.731852zm10.975252,-35.711453l56.120597,0.138269l0,35.573184l-56.120597,0l0,-35.711453zm187.379143,-68.387831l0,57.895393l-56.11831,-0.147333l0,-57.74806l56.11831,0zm60.719692,0l-9.433887,58.020061l-40.308266,-0.106534l0,-57.913527l49.742153,0zm25.282442,-87.307766c-5.893327,-0.931601 -11.60532,3.098545 -12.580023,9.082565l-10.925357,67.247693l-51.519215,0l0,-59.661136l-10.977539,0l0,59.661136l-56.11831,0l0,-61.603675l-10.970731,0l0,61.603675l-53.198828,0l0,-60.633536l-10.970677,0l0,60.633536l-56.120597,0l0,-60.633536l-10.975252,0l0,60.633536l-55.15499,0l0,-61.603675l-10.977502,0l0,61.603675l-55.10059,0l-8.252961,-63.983682c-0.770667,-6.00442 -6.070155,-10.286167 -12.287639,-9.4815c-6.011223,0.770667 -10.25897,6.276421 -9.488303,12.287644l24.310085,188.634906c0.704936,5.478551 5.372017,9.574433 10.891372,9.574433l367.554866,0c5.378794,0 9.968793,-3.903212 10.830142,-9.223095l31.121459,-191.54759c0.95199,-5.977217 -3.10539,-11.614437 -9.089411,-12.591374" id="path1080" fill-rule="nonzero" fill="white"/>
    <path stroke="null" d="m616.134463,319.380355c0,19.062736 -15.458706,34.51692 -34.521431,34.51692l-416.170466,0c-19.069528,0 -34.521452,-15.454185 -34.521452,-34.51692c0,-19.06273 15.451924,-34.521447 34.521452,-34.521447l416.170466,0c19.062725,0 34.521431,15.458717 34.521431,34.521447" id="path1082" fill-rule="nonzero" fill="#dc333e"/>
    <path stroke="null" d="m234.181734,323.523838c-4.315748,0 -8.624698,-1.688672 -11.863772,-5.047887c-6.301357,-6.548422 -6.095092,-16.968321 0.453335,-23.278742l103.074745,-99.182873c6.54164,-6.310422 16.954751,-6.104156 23.271971,0.451069c6.310411,6.548422 6.10413,16.968326 -0.446553,23.278747l-103.074761,99.17607c-3.19827,3.073608 -7.305482,4.603616 -11.414964,4.603616" id="path1084" fill-rule="nonzero" fill="white"/>
    <path stroke="null" d="m500.604363,324.493972c-4.263609,0 -8.531738,-1.643336 -11.743621,-4.934549l-102.095536,-104.038086c-6.364827,-6.489489 -6.276421,-16.916192 0.210803,-23.285545c6.496266,-6.355758 16.936559,-6.249223 23.278726,0.219867l102.097823,104.044889c6.36254,6.482686 6.269612,16.909388 -0.21309,23.278742c-3.205074,3.143881 -7.373467,4.714683 -11.535105,4.714683" id="path1086" fill-rule="nonzero" fill="white"/>
   </g>
  </g>
 </g>
</svg>
