<svg width="612.322" height="612.322" xmlns="http://www.w3.org/2000/svg">

  <title>shoppingCar</title>
  <g id="svg_1">
   <g id="svg_2">
    <g id="svg_3">
     <path id="svg_4" fill="#FFFFFF" d="m187.57,359.458l360.895,0l63.856,-227.934l-93.973,0l-33.74,-104.22l-140.708,45.612l19.244,58.608l-6.623,0l-34.74,-104.22l-140.709,45.612l19.244,58.608l-75.228,0l-15.62,-62.482c-7.873,-31.241 -35.115,-53.359 -66.481,-53.359l-42.987,0l0,26.117l42.987,0c19.494,0 36.489,12.996 41.738,32.616l69.105,270.421c-14.246,10.247 -23.618,26.992 -23.618,46.112c0,31.241 26.117,57.358 57.358,57.358l351.773,0l0,-26.117l-351.773,0c-16.995,0 -31.241,-14.371 -31.241,-31.241c0.001,-17.12 14.371,-31.491 31.241,-31.491l0,0zm280.169,-299.663l23.493,70.355l-101.595,0l-14.371,-40.363l92.473,-29.992zm-162.828,0l23.493,70.355l-101.595,0l-14.371,-40.363l92.473,-29.992zm273.546,96.472l-49.486,177.199l-351.773,0l-45.612,-177.198l446.871,-0.001l0,0z"/>
     <path id="svg_5" fill="#FFFFFF" d="m424.751,487.171c-29.991,0 -54.734,24.743 -54.734,54.734c0,29.991 24.743,54.734 54.734,54.734c31.241,0 54.734,-24.743 54.734,-54.734c0.001,-29.991 -24.742,-54.734 -54.734,-54.734zm0,84.725c-16.995,0 -29.991,-14.371 -29.991,-29.991c0,-16.995 14.371,-29.991 29.991,-29.991c16.995,0 29.991,12.996 29.991,29.991c0.001,16.995 -14.37,29.991 -29.991,29.991z"/>
     <path id="svg_6" fill="#FFFFFF" d="m224.06,487.171c-29.991,0 -54.734,24.743 -54.734,54.734c0,29.991 24.743,54.734 54.734,54.734s54.734,-24.743 54.734,-54.734c0,-29.991 -24.743,-54.734 -54.734,-54.734zm0,84.725c-16.995,0 -29.991,-14.371 -29.991,-29.991c0,-16.995 14.371,-29.991 29.991,-29.991s29.991,12.996 29.991,29.991c0,16.995 -14.371,29.991 -29.991,29.991z"/>
    </g>
   </g>
  </g>
  <g id="svg_7"/>
  <g id="svg_8"/>
  <g id="svg_9"/>
  <g id="svg_10"/>
  <g id="svg_11"/>
  <g id="svg_12"/>
  <g id="svg_13"/>
  <g id="svg_14"/>
  <g id="svg_15"/>
  <g id="svg_16"/>
  <g id="svg_17"/>
  <g id="svg_18"/>
  <g id="svg_19"/>
  <g id="svg_20"/>
  <g id="svg_21"/>
</svg>
