<svg width="750.00001" height="750.00001" xmlns="http://www.w3.org/2000/svg">

 <metadata id="metadata4614">image/svg+xml</metadata>
 <g>
  <title>background</title>
  <rect fill="none" id="canvas_background" height="402" width="582" y="-1" x="-1"/>
 </g>
 <g>
  <title>Layer 1</title>
  <g id="layer1">
   <g id="g4792">
    <path fill="#f38618" fill-rule="nonzero" id="path36" d="m725.000012,374.975368c0,193.32737 -156.68975,350.03931 -349.9974,350.03931c-193.3101,0 -350.00259,-156.71194 -350.00259,-350.03931c0,-193.27807 156.69249,-349.99003 350.00259,-349.99003c193.30765,0 349.9974,156.71196 349.9974,349.99003"/>
    <path fill="#f38618" fill-rule="nonzero" id="path38" d="m28.840452,323.058378c0.15893,-1.05953 0.32722,-2.1437 0.49576,-3.20323c-0.16854,1.05953 -0.33683,2.1437 -0.49576,3.20323"/>
    <path fill="#f38618" fill-rule="nonzero" id="path40" d="m27.738542,331.041818c0.11334,-0.88705 0.24246,-1.79874 0.36369,-2.71043c-0.12123,0.91169 -0.25035,1.82338 -0.36369,2.71043"/>
    <path fill="#f38618" fill-rule="nonzero" id="path42" d="m31.681722,306.697258c0.18307,-0.93633 0.35334,-1.84802 0.54208,-2.75971c-0.18874,0.91169 -0.35901,1.82338 -0.54208,2.75971"/>
    <path fill="#f38618" fill-rule="nonzero" id="path44" d="m26.683442,340.577588c0.05298,-0.51744 0.09536,-1.08417 0.15129,-1.60161c-0.05593,0.51744 -0.09831,1.08417 -0.15129,1.60161"/>
    <path fill="#f38618" fill-rule="nonzero" id="path46" d="m30.135052,315.025658c0.18578,-1.05953 0.37059,-2.1437 0.56598,-3.22787c-0.19539,1.08417 -0.3802,2.16834 -0.56598,3.22787"/>
    <path fill="#f38618" fill-rule="nonzero" id="path48" d="m25.403382,358.392488c0.04608,-1.01025 0.09708,-1.99586 0.15105,-2.98147c-0.05396,0.98561 -0.10497,1.97122 -0.15105,2.98147"/>
    <path fill="#f38618" fill-rule="nonzero" id="path50" d="m25.164622,385.324278c-0.0202,-0.71457 -0.04411,-1.42914 -0.05963,-2.14371c0.01553,0.71457 0.03844,1.42914 0.05963,2.14371"/>
    <path fill="#f38618" fill-rule="nonzero" id="path52" d="m25.478532,393.332348c-0.0175,-0.34496 -0.03179,-0.68992 -0.0483,-1.03488c0.01651,0.34496 0.02981,0.68992 0.0483,1.03488"/>
    <path fill="#f38618" fill-rule="nonzero" id="path54" d="m33.835032,296.520838c0.2289,-0.98561 0.47826,-1.99586 0.71703,-2.98147c-0.23877,0.98561 -0.48813,1.99586 -0.71703,2.98147"/>
    <path fill="#f38618" fill-rule="nonzero" id="path56" d="m25.105972,366.696248c0.0202,-0.88705 0.05396,-1.74946 0.07984,-2.61187c-0.02587,0.86241 -0.05963,1.72482 -0.07984,2.61187"/>
    <path fill="#f38618" fill-rule="nonzero" id="path58" d="m25.901852,349.940888c0.06653,-0.93634 0.12912,-1.8973 0.20328,-2.83363c-0.07416,0.93633 -0.13675,1.89729 -0.20328,2.83363"/>
    <path fill="#f38618" fill-rule="nonzero" id="path60" d="m35.692652,288.857718c0.29248,-1.15809 0.59679,-2.31618 0.89986,-3.47427c-0.30307,1.15809 -0.60738,2.31618 -0.89986,3.47427"/>
    <path fill="#f38618" fill-rule="nonzero" id="path62" d="m39.977602,273.457568c0.3351,-1.10881 0.66035,-2.21763 1.00581,-3.32644c-0.34546,1.10881 -0.67071,2.21763 -1.00581,3.32644"/>
    <path fill="#f38618" fill-rule="nonzero" id="path64" d="m37.728182,281.194608c0.3255,-1.15809 0.65371,-2.34083 0.99054,-3.49892c-0.33683,1.15809 -0.66504,2.34083 -0.99054,3.49892"/>
    <path fill="#dc731b" fill-rule="nonzero" id="path66" d="m25.185812,364.084378c0.05864,-1.92193 0.12813,-3.81923 0.21757,-5.69189c-0.08944,1.87266 -0.15893,3.76996 -0.21757,5.69189"/>
    <path fill="#dc731b" fill-rule="nonzero" id="path68" d="m32.223802,303.937548c0.51104,-2.48866 1.0482,-4.95269 1.61123,-7.41671c-0.56303,2.46402 -1.10019,4.92805 -1.61123,7.41671"/>
    <path fill="#dc731b" fill-rule="nonzero" id="path70" d="m40.983412,270.131128c0.719,-2.29154 1.45919,-4.55844 2.22353,-6.84998c-0.76434,2.29154 -1.50453,4.55844 -2.22353,6.84998"/>
    <path fill="#dc731b" fill-rule="nonzero" id="path72" d="m25.430242,392.297468c-0.11359,-2.31619 -0.19811,-4.65701 -0.26562,-6.97319c0.06653,2.31618 0.15498,4.657 0.26562,6.97319"/>
    <path fill="#dc731b" fill-rule="nonzero" id="path74" d="m25.104992,383.180568c-0.06259,-2.73506 -0.10497,-5.47013 -0.10497,-8.2052c0,2.73507 0.04238,5.47014 0.10497,8.2052"/>
    <path fill="#dc731b" fill-rule="nonzero" id="path76" d="m25.000022,374.975368c0,-2.7597 0.0414,-5.51941 0.10595,-8.27912c-0.06456,2.75971 -0.10595,5.51942 -0.10595,8.27912"/>
    <path fill="#dc731b" fill-rule="nonzero" id="path78" d="m25.554432,355.411018c0.10102,-1.82338 0.21855,-3.64675 0.34742,-5.47013c-0.12887,1.82337 -0.2464,3.64675 -0.34742,5.47013"/>
    <path fill="#dc731b" fill-rule="nonzero" id="path80" d="m26.834732,338.975978c0.26932,-2.66115 0.57461,-5.29765 0.90381,-7.93416c-0.3292,2.63651 -0.63449,5.27301 -0.90381,7.93416"/>
    <path fill="#dc731b" fill-rule="nonzero" id="path82" d="m30.701032,311.797788c0.31269,-1.70018 0.64385,-3.40036 0.98069,-5.10053c-0.33684,1.70017 -0.668,3.40035 -0.98069,5.10053"/>
    <path fill="#dc731b" fill-rule="nonzero" id="path84" d="m29.336212,319.855148c0.25503,-1.60162 0.52262,-3.22787 0.79884,-4.82949c-0.27622,1.60162 -0.54381,3.22787 -0.79884,4.82949"/>
    <path fill="#dc731b" fill-rule="nonzero" id="path86" d="m34.552062,293.539368c0.37157,-1.57698 0.74783,-3.12931 1.14059,-4.68165c-0.39276,1.55234 -0.76902,3.10467 -1.14059,4.68165"/>
    <path fill="#dc731b" fill-rule="nonzero" id="path88" d="m28.102232,328.331388c0.23482,-1.74946 0.47654,-3.52355 0.73822,-5.27301c-0.26168,1.74946 -0.5034,3.52355 -0.73822,5.27301"/>
    <path fill="#dc731b" fill-rule="nonzero" id="path90" d="m38.718722,277.695688c0.40903,-1.42913 0.83358,-2.83363 1.25888,-4.23812c-0.4253,1.40449 -0.84985,2.80898 -1.25888,4.23812"/>
    <path fill="#dc731b" fill-rule="nonzero" id="path92" d="m36.592512,285.383448c0.37059,-1.37986 0.74883,-2.78435 1.13567,-4.18884c-0.38684,1.40449 -0.76508,2.80898 -1.13567,4.18884"/>
    <path fill="#dc731b" fill-rule="nonzero" id="path94" d="m26.105132,347.107258c0.17224,-2.16834 0.36764,-4.36132 0.57831,-6.52967c-0.21166,2.16835 -0.40607,4.36133 -0.57831,6.52967"/>
    <path fill="#dc731b" fill-rule="nonzero" id="path96" d="m559.999102,177.533098l-335.77507,-8.13128l-180.98333,93.78077l-0.0338,0.0986c-0.76434,2.29154 -1.50453,4.55844 -2.22353,6.84998c-0.34546,1.10881 -0.67071,2.21763 -1.00582,3.32644c-0.42529,1.40449 -0.84984,2.80898 -1.25887,4.23812c-0.33683,1.15809 -0.66504,2.34083 -0.99054,3.49892c-0.38685,1.40449 -0.76508,2.80898 -1.13567,4.18884c-0.30307,1.15809 -0.60738,2.31618 -0.89986,3.47427c-0.39276,1.55234 -0.76902,3.10467 -1.14059,4.68165c-0.23877,0.98561 -0.48813,1.99586 -0.71704,2.98147c-0.56303,2.46402 -1.10018,4.92805 -1.61122,7.41671c-0.18875,0.91169 -0.35901,1.82338 -0.54209,2.75971c-0.33683,1.70018 -0.66799,3.40035 -0.98068,5.10053c-0.1954,1.08417 -0.3802,2.16834 -0.56598,3.22787c-0.27622,1.60162 -0.54381,3.22788 -0.79884,4.82949c-0.16854,1.05953 -0.33683,2.1437 -0.49576,3.20323c-0.26168,1.74946 -0.5034,3.52355 -0.73823,5.27301c-0.12122,0.91169 -0.25034,1.82338 -0.36368,2.71043c-0.3292,2.63651 -0.63449,5.27301 -0.90381,7.93416c-0.05593,0.51744 -0.09831,1.08417 -0.15129,1.60161c-0.21067,2.16835 -0.40607,4.36133 -0.57831,6.52967c-0.07417,0.93633 -0.13675,1.8973 -0.20328,2.83363c-0.12887,1.82338 -0.2464,3.64675 -0.34743,5.47013c-0.05396,0.98561 -0.10496,1.97122 -0.15104,2.98147c-0.08944,1.87266 -0.15893,3.76996 -0.21757,5.6919c-0.02587,0.8624 -0.05963,1.72481 -0.07983,2.61186c-0.06456,2.75971 -0.10596,5.51942 -0.10596,8.27912c0,2.73507 0.04238,5.47014 0.10497,8.2052c0.01553,0.71458 0.03942,1.42914 0.05963,2.14371c0.06751,2.31618 0.15203,4.657 0.26562,6.97319c0.01651,0.34496 0.0308,0.68992 0.04829,1.03488c7.79717,150.92151 111.14944,276.51279 250.70932,317.51419l265.2473,-116.1541l18.56396,-417.15934"/>
    <path fill="#aeb0b2" fill-rule="nonzero" id="path736" d="m223.285242,169.426448l0,379.95258l289.1508,0c15.25724,33.36285 28.9991,45.31345 28.9991,45.31345c-4.65454,-37.18218 32.76166,-45.31345 32.76166,-45.31345l0,-379.95258l-350.91156,0"/>
    <path fill="#f6f6f6" fill-rule="nonzero" id="path738" d="m190.526042,594.692478l350.9091,0l0,-379.95508l-350.9091,0l0,379.95508z"/>
    <path fill="#81868a" fill-rule="nonzero" id="path740" d="m281.241562,272.816918c0,5.39621 -4.36625,9.75754 -9.75754,9.75754c-5.37896,0 -9.74768,-4.36133 -9.74768,-9.75754c0,-5.39621 4.36872,-9.75754 9.74768,-9.75754c5.39129,0 9.75754,4.36133 9.75754,9.75754"/>
    <path fill="#81868a" fill-rule="nonzero" id="path742" d="m460.602832,272.816918c0,5.39621 -4.36872,9.75754 -9.75508,9.75754c-5.38389,0 -9.75261,-4.36133 -9.75261,-9.75754c0,-5.39621 4.36872,-9.75754 9.75261,-9.75754c5.38636,0 9.75508,4.36133 9.75508,9.75754"/>
    <path fill="#81868a" fill-rule="nonzero" id="path744" d="m190.526042,214.739868l54.33173,0l0,-21.92982c-2.22255,7.81096 -15.7525,16.01616 -54.33173,21.92982"/>
    <path fill="#d5d2d1" fill-rule="nonzero" id="path746" d="m510.696442,169.401818l-286.47241,0c0,0 24.10309,11.23595 20.63374,23.40823l0,21.92982l265.83867,0l0,-20.00788l0.13799,0c-0.27351,-7.93416 14.38497,-17.12497 65.46421,-25.33017l-65.6022,0"/>
    <path fill="#81868a" fill-rule="nonzero" id="path748" d="m510.834432,194.731988l-0.13799,0l0,20.00788l30.7387,0c0,0 -30.20401,-8.77193 -30.60071,-20.00788"/>
    <path fill="#81868a" fill-rule="nonzero" id="path750" d="m444.389542,278.779858l0,55.78551c0,33.09185 -37.34968,59.999 -83.25199,59.999c-45.90231,0 -83.24953,-26.90715 -83.24953,-59.999l0,-55.78551l-12.44086,0l0,55.78551c0,39.94184 42.92331,72.44232 95.69039,72.44232c52.76708,0 95.69285,-32.50048 95.69285,-72.44232l0,-55.78551l-12.44086,0"/>
    <path fill="#d5d2d1" fill-rule="nonzero" id="path752" d="m444.389542,272.570518l0,55.76087c0,33.09185 -37.34968,60.02364 -83.25199,60.02364c-45.90231,0 -83.24953,-26.93179 -83.24953,-60.02364l0,-55.76087l-12.44086,0l0,55.76087c0,39.96648 42.92331,72.46696 95.69039,72.46696c52.76708,0 95.69285,-32.50048 95.69285,-72.46696l0,-55.76087l-12.44086,0"/>
   </g>
  </g>
 </g>
</svg>